<?xml version="1.0" encoding="UTF-8"?>
<svg version="1.1" xmlns="http://www.w3.org/2000/svg" width="312" height="244">
<path d="M0 0 C13.75280438 8.52625701 21.69981862 20.50244946 25.54296875 36.1953125 C26.28167812 39.97860909 26.39412868 43.53680414 26.23046875 47.3828125 C24.60378395 47.10069373 22.97913979 46.80678875 21.35546875 46.5078125 C20.45054687 46.34539062 19.545625 46.18296875 18.61328125 46.015625 C16.23046875 45.3828125 16.23046875 45.3828125 14.23046875 43.3828125 C13.75578332 41.60563657 13.34940282 39.80991355 12.98046875 38.0078125 C10.6105088 28.13692932 6.56815143 18.60414684 -1.76953125 12.3828125 C-10.16425204 7.88564065 -17.78622127 7.78682911 -26.76953125 10.3828125 C-35.33245107 13.68598184 -40.51734134 18.26600208 -44.76953125 26.3828125 C-52.66623644 44.25322085 -53.6109197 63.89984828 -46.76953125 82.3828125 C-46.40730469 83.465625 -46.04507813 84.5484375 -45.671875 85.6640625 C-43.86821029 90.90033869 -43.86821029 90.90033869 -39.84765625 94.32421875 C-37.78070589 94.78426105 -37.78070589 94.78426105 -35.703125 95.01953125 C-32.2518477 95.66795305 -30.77337843 97.65029362 -28.76953125 100.3828125 C-27.59202959 104.43047444 -27.48935074 106.58896771 -28.89453125 110.5703125 C-31.00883184 113.74176339 -32.43736128 115.49941208 -35.76953125 117.3828125 C-39.60193355 118.14079225 -43.08401109 118.25414072 -46.61328125 116.4296875 C-49.87753364 113.90149202 -51.92665815 111.40987285 -52.76953125 107.3828125 C-52.55039063 106.15304688 -52.33125 104.92328125 -52.10546875 103.65625 C-51.50293296 99.19626896 -52.82189654 96.17989798 -54.95703125 92.3203125 C-64.960627 72.67910621 -65.87413979 51.84289399 -59.73828125 30.85546875 C-54.75571693 16.69892621 -45.77235708 6.05962417 -32.26953125 -0.6171875 C-22.54382536 -4.32401339 -9.47177634 -4.66252674 0 0 Z " fill="#764ABC" transform="translate(171.76953125,22.6171875)"/>
<path d="M0 0 C2.42130331 2.42130331 2.52840504 3.80111377 3.125 7.125 C3.29257813 8.03507812 3.46015625 8.94515625 3.6328125 9.8828125 C3.75398438 10.58148438 3.87515625 11.28015625 4 12 C3.49210937 12.38929687 2.98421875 12.77859375 2.4609375 13.1796875 C-5.48306251 19.63604706 -11.2035229 27.92392977 -12.37109375 38.296875 C-12.54393897 47.28482667 -11.47290598 53.99587003 -5.35546875 60.83984375 C2.3918169 67.9925296 11.30592837 69.34089558 21.546875 69.203125 C38.14525063 68.22674996 56.16062507 58.69645149 67.41259766 46.46435547 C73.39443779 39.55109305 73.39443779 39.55109305 76 31 C75.505 30.1028125 75.505 30.1028125 75 29.1875 C73.4316812 25.75680262 74.03270103 22.52573465 75 19 C76.83285193 15.98888611 78.29547252 14.41890823 81.3125 12.625 C84.95913137 11.77694619 87.37408898 12.04581289 91 13 C93.90996544 14.86185708 96.42868293 16.85736586 98 20 C98.52499368 23.74995483 98.80572852 27.41194587 97.05859375 30.85546875 C95.13055438 33.30329303 93.4900577 34.83716193 90.51953125 35.82421875 C87.16360787 37.39031633 86.520056 39.09350085 84.875 42.375 C74.23384313 61.5843611 55.61013125 73.24926836 34.83984375 79.2734375 C21.17716837 82.76897756 6.78465297 82.31206195 -5.77734375 75.4921875 C-14.74240042 69.69523356 -20.49977188 62.39541357 -23 52 C-23.40941193 48.69472322 -23.47827256 45.45293983 -23.4375 42.125 C-23.42920166 41.24730957 -23.42090332 40.36961914 -23.41235352 39.46533203 C-23.00478206 23.79776319 -15.00725564 13.6043658 -4.13671875 2.93359375 C-2 1 -2 1 0 0 Z " fill="#764ABC" transform="translate(100,90)"/>
<path d="M0 0 C2.60847629 1.49745861 4.87028902 2.87028902 7 5 C8.35959637 5.16713891 9.72645818 5.27600355 11.09375 5.359375 C35.2644097 7.07254265 54.84905843 13.41965342 72 31 C72.76183594 31.7528125 73.52367187 32.505625 74.30859375 33.28125 C85.57974848 45.04245493 87.58694501 57.03023662 87.33203125 72.61328125 C87.07662624 78.76507362 85.94928595 83.18854599 82 88 C81.36835938 88.78246094 80.73671875 89.56492187 80.0859375 90.37109375 C72.35996032 98.92585757 61.2684818 104.73130002 49.65234375 105.3359375 C48.0809522 105.36544253 46.50916589 105.37787734 44.9375 105.375 C44.11056641 105.37483887 43.28363281 105.37467773 42.43164062 105.37451172 C33.88018699 105.21768004 25.23548285 103.82365523 18 99 C18 97 18 97 19.50390625 95.45703125 C25.08313539 91 25.08313539 91 29.4375 91 C31.2009375 91.495 31.2009375 91.495 33 92 C44.02215818 94.82778216 53.80753613 95.15454129 64.1953125 89.88671875 C70.47594227 85.83893644 73.66277658 79.9776743 76 73 C77.79685528 63.11083244 74.63314535 53.85991185 69.42578125 45.4609375 C67.73236677 43.16357799 65.95318375 41.08022009 64 39 C63.36578125 38.32453125 62.7315625 37.6490625 62.078125 36.953125 C52.08886525 27.26429411 39.38428952 22.06074838 26 19 C25.19433594 18.814375 24.38867188 18.62875 23.55859375 18.4375 C20.27401631 17.87586233 17.01197787 17.65498921 13.6875 17.4375 C12.43324219 17.35371094 11.17898437 17.26992187 9.88671875 17.18359375 C8.45779297 17.09271484 8.45779297 17.09271484 7 17 C6.71511719 17.62390625 6.43023437 18.2478125 6.13671875 18.890625 C4.55968441 21.81708048 3.02484138 22.65562606 0 24 C-4.3558698 24.55438343 -6.43700886 24.30805175 -10.3125 22.1875 C-13.11367321 19.9074753 -14.80363219 18.34717449 -15.3359375 14.6953125 C-15.40080195 10.42723147 -15.43985326 7.75403416 -13.25 4 C-8.9036735 0.13659867 -5.8964993 -0.60998269 0 0 Z " fill="#764ABC" transform="translate(149,66)"/>
<path d="M0 0 C3.3 0 6.6 0 10 0 C11.13905319 2.27810639 11.1266699 3.5369637 11.12939453 6.06665039 C11.13254669 6.90414322 11.13569885 7.74163605 11.13894653 8.60450745 C11.1369223 9.50974655 11.13489807 10.41498566 11.1328125 11.34765625 C11.13376923 12.27468857 11.13472595 13.20172089 11.13571167 14.15684509 C11.13639276 16.11799182 11.1345434 18.0791408 11.13037109 20.0402832 C11.12501582 23.05359927 11.13032158 26.06676668 11.13671875 29.08007812 C11.13605807 30.98177116 11.13477713 32.88346411 11.1328125 34.78515625 C11.13483673 35.69241959 11.13686096 36.59968292 11.13894653 37.53443909 C11.11495378 43.88504622 11.11495378 43.88504622 10 45 C3.53846154 45.35897436 3.53846154 45.35897436 0 43 C-0.495 43.33 -0.99 43.66 -1.5 44 C-5.04249073 45.41699629 -8.28095811 45.67358369 -12 45 C-17.3744379 41.85646085 -18.87912296 38.69596338 -20.5546875 32.79296875 C-20.70164063 32.20128906 -20.84859375 31.60960937 -21 31 C-21.66 31.33 -22.32 31.66 -23 32 C-25.71760108 32.07181821 -28.40859388 32.09299506 -31.125 32.0625 C-31.87910156 32.05798828 -32.63320312 32.05347656 -33.41015625 32.04882812 C-35.27347127 32.03703499 -37.13674555 32.01909942 -39 32 C-38.67 32.99 -38.34 33.98 -38 35 C-32.65370398 36.0024305 -28.37625234 35.84888195 -23 35 C-21.515 37.475 -21.515 37.475 -20 40 C-25.34271467 44.28641864 -29.58649568 45.70667311 -36.44921875 45.35546875 C-41.32626113 44.67581966 -44.04636134 43.05673474 -47.3125 39.4375 C-50.91002411 34.24107628 -50.56656861 29.18369163 -50 23 C-48.00111641 18.52250075 -45.39993524 15.9464798 -40.9921875 13.6953125 C-37.28959049 12.40303355 -33.84431074 12.31251377 -30 13 C-25.04607121 15.43022922 -22.72685049 18.38532995 -20 23 C-19.46375 22.0925 -18.9275 21.185 -18.375 20.25 C-16.06503497 16.84159006 -13.73138828 14.86569414 -10 13 C-6.5092177 12.5376016 -3.21875167 12.39062416 0 14 C0 9.38 0 4.76 0 0 Z M-37 21 C-38.485 22.98 -38.485 22.98 -40 25 C-36.7 25 -33.4 25 -30 25 C-30.66 23.68 -31.32 22.36 -32 21 C-34.37374861 20.66574265 -34.37374861 20.66574265 -37 21 Z M-6 21 C-7.98930589 22.90641815 -8.92722517 24.41569191 -9.26953125 27.1640625 C-9.38047686 32.38284774 -9.38047686 32.38284774 -7 37 C-3.18186553 36.72459296 -3.18186553 36.72459296 0 35 C0.07258946 32.81360547 0.08373783 30.62499611 0.0625 28.4375 C0.05347656 27.23996094 0.04445313 26.04242188 0.03515625 24.80859375 C0.02355469 23.88175781 0.01195312 22.95492187 0 22 C-2.97 21.505 -2.97 21.505 -6 21 Z " fill="#303030" transform="translate(160,179)"/>
<path d="M0 0 C3.3 0 6.6 0 10 0 C10.33 7.26 10.66 14.52 11 22 C12.65 22.33 14.3 22.66 16 23 C17.65079442 21.34920558 17.22549447 19.36263821 17.31640625 17.08984375 C17.35830078 16.10048828 17.40019531 15.11113281 17.44335938 14.09179688 C17.48267578 13.05087891 17.52199219 12.00996094 17.5625 10.9375 C17.60568359 9.89271484 17.64886719 8.84792969 17.69335938 7.77148438 C17.79981225 5.18113116 17.9018276 2.59067814 18 0 C21.39537852 -0.14575327 24.78994902 -0.23421542 28.1875 -0.3125 C29.14720703 -0.35439453 30.10691406 -0.39628906 31.09570312 -0.43945312 C38.25870977 -0.56338058 38.25870977 -0.56338058 42.125 2.375 C43.80240718 4.72337006 44.68482861 6.16345745 45 9 C45.66 9 46.32 9 47 9 C47.268125 8.071875 47.53625 7.14375 47.8125 6.1875 C48.96058605 3.10579533 49.44353571 1.91734822 52 0 C54.48046875 -0.29296875 54.48046875 -0.29296875 57.1875 -0.1875 C58.08855469 -0.16042969 58.98960937 -0.13335937 59.91796875 -0.10546875 C60.94857422 -0.05326172 60.94857422 -0.05326172 62 0 C62 0.99 62 1.98 62 3 C61.34 3 60.68 3 60 3 C59.773125 3.66 59.54625 4.32 59.3125 5 C57.59428642 8.92734533 55.33225393 12.41260178 53 16 C53.97453125 17.35544922 53.97453125 17.35544922 54.96875 18.73828125 C55.81286859 19.92942638 56.65659845 21.12084706 57.5 22.3125 C57.92925781 22.90740234 58.35851562 23.50230469 58.80078125 24.11523438 C62 28.66015625 62 28.66015625 62 32 C52.89374379 32.62562066 52.89374379 32.62562066 49.5 30.25 C48.14389443 28.21584164 47.06070421 26.19717301 46 24 C45.34 23.67 44.68 23.34 44 23 C43.731875 23.7425 43.46375 24.485 43.1875 25.25 C41.1287528 30.01762509 41.1287528 30.01762509 39 32 C35.99305993 32.56168033 33.04847637 32.46607083 30 32.375 C29.18015625 32.37371094 28.3603125 32.37242187 27.515625 32.37109375 C21.42222744 32.28148496 21.42222744 32.28148496 18 30 C17.01 30.66 16.02 31.32 15 32 C10.5578989 32.71539456 7.01934387 32.56389235 3.0625 30.375 C-1.80376858 24.771418 -1.27830402 18.20808455 -1.1875 11.1875 C-1.1865332 9.73827148 -1.1865332 9.73827148 -1.18554688 8.25976562 C-1.14052002 1.14052002 -1.14052002 1.14052002 0 0 Z M29 3 C29 11.58 29 20.16 29 29 C32.19892281 25.80107719 34.05299314 23.54483003 36.25 19.75 C36.77078125 18.85796875 37.2915625 17.9659375 37.828125 17.046875 C38.21484375 16.37140625 38.6015625 15.6959375 39 15 C37.52464063 12.99708788 36.04497707 10.99763223 34.5625 9 C33.93118164 8.14148438 33.93118164 8.14148438 33.28710938 7.265625 C32.21555864 5.82546081 31.11033324 4.41048004 30 3 C29.67 3 29.34 3 29 3 Z " fill="#303030" transform="translate(174,192)"/>
<path d="M0 0 C24.38235294 0 24.38235294 0 30.5625 5.125 C32.53182138 9.06364275 33.34223823 12.58979372 33 17 C31.12101569 20.62375545 28.8783226 23.17130365 26 26 C26.45890625 26.6290625 26.9178125 27.258125 27.390625 27.90625 C31.12088311 33.10980334 34.31007071 38.18975274 37 44 C35.08458862 44.10841951 33.16740227 44.18578079 31.25 44.25 C30.18265625 44.29640625 29.1153125 44.3428125 28.015625 44.390625 C24.23158584 43.90046449 23.30872364 42.98541849 21 40 C19.85493034 38.1195645 18.77157673 36.20028285 17.75 34.25 C17.22921875 33.26515625 16.7084375 32.2803125 16.171875 31.265625 C15.78515625 30.51796875 15.3984375 29.7703125 15 29 C14.01 29 13.02 29 12 29 C12 33.95 12 38.9 12 44 C8.04 44 4.08 44 0 44 C0 29.48 0 14.96 0 0 Z M12 9 C12 12.63 12 16.26 12 20 C16.7897321 20.23428313 16.7897321 20.23428313 21 18 C21.5 14.5 21.5 14.5 21 11 C17.5647952 8.70986347 16.014669 8.82157027 12 9 Z " fill="#303030" transform="translate(77,180)"/>
</svg>
