<?xml version="1.0" encoding="UTF-8"?>
<svg version="1.1" xmlns="http://www.w3.org/2000/svg" width="616" height="616">
<path d="M0 0 C1.05704132 0.00182281 2.11408264 0.00364563 3.20315552 0.00552368 C18.80019511 0.05078206 33.99317377 0.5219917 49.375 3.3125 C50.37821289 3.48410645 51.38142578 3.65571289 52.41503906 3.83251953 C111.41660877 14.04959729 166.28249756 40.71318179 209.83447266 81.87353516 C211.33406969 83.2742681 212.85384778 84.64754894 214.38671875 86.01171875 C219.11385218 90.22293038 223.58383576 94.43475721 227.65625 99.28515625 C229.53898583 101.50592874 231.5163438 103.61900701 233.5 105.75 C261.33143772 136.66328346 281.65537588 174.9194857 294.375 214.3125 C294.66455566 215.20598145 294.95411133 216.09946289 295.25244141 217.02001953 C320.10407073 295.1732011 310.02950393 380.96559747 272.90820312 453.43457031 C265.25576158 467.79873925 256.4377214 481.52236975 246.375 494.3125 C245.8608252 494.96798828 245.34665039 495.62347656 244.81689453 496.29882812 C230.18496246 514.8469667 214.10951712 532.82376579 195.375 547.3125 C194.28741892 548.18806651 193.20157257 549.06579085 192.1171875 549.9453125 C183.86762544 556.598411 175.32476542 562.63892522 166.375 568.3125 C165.7867041 568.68584473 165.1984082 569.05918945 164.59228516 569.44384766 C115.6193161 600.24044151 59.19877278 616.51708342 1.375 616.5625 C0.59320374 616.56317474 -0.18859253 616.56384949 -0.99407959 616.56454468 C-33.69078245 616.52020202 -65.51858234 611.39185301 -96.625 601.3125 C-97.5207373 601.02568359 -98.41647461 600.73886719 -99.33935547 600.44335938 C-122.14616044 593.01574342 -144.41028041 582.20829523 -164.625 569.3125 C-165.70265625 568.62800781 -166.7803125 567.94351563 -167.890625 567.23828125 C-182.46108042 557.73012509 -195.9728716 546.84643894 -208.703125 535.01171875 C-211.41378029 532.50762409 -214.1677361 530.06323155 -216.9375 527.625 C-220.50307638 524.42221676 -223.71755182 521.11069015 -226.80078125 517.4453125 C-228.89750393 514.99389797 -231.10465762 512.6642558 -233.3125 510.3125 C-271.67231775 468.12250378 -295.09348347 413.0338351 -304.625 357.3125 C-304.79016113 356.40209961 -304.95532227 355.49169922 -305.12548828 354.55371094 C-310.52202376 323.84870763 -310.14206539 288.96611533 -304.625 258.3125 C-304.31103271 256.5500293 -304.31103271 256.5500293 -303.99072266 254.75195312 C-301.36969714 240.43926178 -298.27633469 226.35876444 -293.43457031 212.62451172 C-292.58107564 210.18705861 -291.77101734 207.73735294 -290.9609375 205.28515625 C-276.53368259 162.66132478 -251.73034989 124.61728498 -220.625 92.3125 C-220.09519531 91.76078125 -219.56539063 91.2090625 -219.01953125 90.640625 C-211.94295727 83.31191656 -204.63912177 76.62080469 -196.625 70.3125 C-195.49413721 69.38258257 -194.36533909 68.45015038 -193.23828125 67.515625 C-150.57564834 32.35322813 -97.35595303 9.60633787 -42.625 2.3125 C-41.65859589 2.18329666 -41.65859589 2.18329666 -40.67266846 2.05148315 C-27.10990857 0.29287287 -13.66454706 -0.04900863 0 0 Z " fill="#EEC093" transform="translate(307.625,-0.3125)"/>
<path d="M0 0 C1.05704132 0.00182281 2.11408264 0.00364563 3.20315552 0.00552368 C18.80019511 0.05078206 33.99317377 0.5219917 49.375 3.3125 C50.37821289 3.48410645 51.38142578 3.65571289 52.41503906 3.83251953 C111.41660877 14.04959729 166.28249756 40.71318179 209.83447266 81.87353516 C211.33406969 83.2742681 212.85384778 84.64754894 214.38671875 86.01171875 C219.11385218 90.22293038 223.58383576 94.43475721 227.65625 99.28515625 C229.53898583 101.50592874 231.5163438 103.61900701 233.5 105.75 C261.33143772 136.66328346 281.65537588 174.9194857 294.375 214.3125 C294.66455566 215.20598145 294.95411133 216.09946289 295.25244141 217.02001953 C320.10407073 295.1732011 310.02950393 380.96559747 272.90820312 453.43457031 C265.25576158 467.79873925 256.4377214 481.52236975 246.375 494.3125 C245.8608252 494.96798828 245.34665039 495.62347656 244.81689453 496.29882812 C230.18496246 514.8469667 214.10951712 532.82376579 195.375 547.3125 C194.28741892 548.18806651 193.20157257 549.06579085 192.1171875 549.9453125 C183.86762544 556.598411 175.32476542 562.63892522 166.375 568.3125 C165.7867041 568.68584473 165.1984082 569.05918945 164.59228516 569.44384766 C115.6193161 600.24044151 59.19877278 616.51708342 1.375 616.5625 C0.59320374 616.56317474 -0.18859253 616.56384949 -0.99407959 616.56454468 C-33.69078245 616.52020202 -65.51858234 611.39185301 -96.625 601.3125 C-97.5207373 601.02568359 -98.41647461 600.73886719 -99.33935547 600.44335938 C-122.14616044 593.01574342 -144.41028041 582.20829523 -164.625 569.3125 C-165.70265625 568.62800781 -166.7803125 567.94351563 -167.890625 567.23828125 C-182.46108042 557.73012509 -195.9728716 546.84643894 -208.703125 535.01171875 C-211.41378029 532.50762409 -214.1677361 530.06323155 -216.9375 527.625 C-220.50307638 524.42221676 -223.71755182 521.11069015 -226.80078125 517.4453125 C-228.89750393 514.99389797 -231.10465762 512.6642558 -233.3125 510.3125 C-271.67231775 468.12250378 -295.09348347 413.0338351 -304.625 357.3125 C-304.79016113 356.40209961 -304.95532227 355.49169922 -305.12548828 354.55371094 C-310.52202376 323.84870763 -310.14206539 288.96611533 -304.625 258.3125 C-304.31103271 256.5500293 -304.31103271 256.5500293 -303.99072266 254.75195312 C-301.36969714 240.43926178 -298.27633469 226.35876444 -293.43457031 212.62451172 C-292.58107564 210.18705861 -291.77101734 207.73735294 -290.9609375 205.28515625 C-276.53368259 162.66132478 -251.73034989 124.61728498 -220.625 92.3125 C-220.09519531 91.76078125 -219.56539063 91.2090625 -219.01953125 90.640625 C-211.94295727 83.31191656 -204.63912177 76.62080469 -196.625 70.3125 C-195.49413721 69.38258257 -194.36533909 68.45015038 -193.23828125 67.515625 C-150.57564834 32.35322813 -97.35595303 9.60633787 -42.625 2.3125 C-41.65859589 2.18329666 -41.65859589 2.18329666 -40.67266846 2.05148315 C-27.10990857 0.29287287 -13.66454706 -0.04900863 0 0 Z M-64.5 31.4375 C-65.74974609 31.7368042 -66.99949219 32.0361084 -68.28710938 32.34448242 C-139.14920337 49.89423091 -201.59759482 95.63012973 -240.5 157.3125 C-259.34359422 188.66763047 -273.23493817 222.16406881 -279.625 258.3125 C-279.74810547 259.00746582 -279.87121094 259.70243164 -279.99804688 260.41845703 C-282.55522227 275.364315 -282.81156092 290.37772787 -282.81030273 305.49609375 C-282.81248066 308.41160893 -282.83068109 311.32673923 -282.84960938 314.2421875 C-282.89789875 330.11664985 -282.15910422 346.00792148 -278.75 361.5625 C-278.57637939 362.38564697 -278.40275879 363.20879395 -278.22387695 364.05688477 C-277.70564728 366.47895864 -277.16886328 368.89606888 -276.625 371.3125 C-276.39707764 372.34769775 -276.39707764 372.34769775 -276.16455078 373.40380859 C-264.49325703 425.77632124 -236.12621837 474.17549803 -197.625 511.3125 C-194.56833336 508.40593752 -192.09494759 505.35238966 -189.625 501.9375 C-175.70114269 483.14506009 -159.26408763 465.31305458 -140.30371094 451.54248047 C-138.54694482 450.25530948 -136.8237935 448.93061586 -135.1015625 447.59765625 C-116.7234396 433.5263657 -95.929798 423.163869 -74.625 414.3125 C-73.78266052 399.99566731 -73.38482574 385.7163915 -73.375 371.375 C-73.37348938 369.82119125 -73.37348938 369.82119125 -73.37194824 368.23599243 C-73.39077138 339.30234037 -75.73018373 310.83964075 -80.625 282.3125 C-80.93123291 280.52730957 -80.93123291 280.52730957 -81.24365234 278.70605469 C-82.65322855 270.56540426 -84.1214116 262.43626931 -85.625 254.3125 C-85.79451172 253.39581543 -85.96402344 252.47913086 -86.13867188 251.53466797 C-86.95628973 247.12512936 -87.78365623 242.71758448 -88.625 238.3125 C-88.955 238.3125 -89.285 238.3125 -89.625 238.3125 C-89.71998779 238.90039307 -89.81497559 239.48828613 -89.9128418 240.09399414 C-94.89387096 270.40880368 -107.05130434 295.95524183 -122.625 322.3125 C-123.17961914 323.25303223 -123.73423828 324.19356445 -124.30566406 325.16259766 C-133.5098489 340.72794471 -133.5098489 340.72794471 -136.96484375 345.74609375 C-138.80604843 348.08295289 -138.80604843 348.08295289 -138.625 350.3125 C-139.285 350.3125 -139.945 350.3125 -140.625 350.3125 C-140.73328125 349.30574219 -140.8415625 348.29898437 -140.953125 347.26171875 C-141.5195289 343.31174471 -142.86306932 339.79844905 -144.375 336.125 C-148.04477064 326.73486763 -150.50087717 317.1568048 -152.625 307.3125 C-152.78629395 306.57789551 -152.94758789 305.84329102 -153.11376953 305.08642578 C-156.49443065 289.065666 -156.35165166 272.61825722 -156.625 256.3125 C-162.06805294 260.85315206 -167.12760354 265.66328389 -172.125 270.6875 C-172.84558594 271.40421875 -173.56617188 272.1209375 -174.30859375 272.859375 C-178.38827529 276.9464339 -182.27771184 281.13576579 -186.04833984 285.50878906 C-191.38443512 291.61332172 -197.26192922 297.28902307 -203.625 302.3125 C-210.76892877 288.02464246 -206.53025791 258.59014935 -203.625 243.3125 C-203.44759277 242.30437256 -203.44759277 242.30437256 -203.26660156 241.27587891 C-200.70673175 227.05980799 -195.34994997 213.23130572 -185.625 202.3125 C-184.82255859 201.35537109 -184.82255859 201.35537109 -184.00390625 200.37890625 C-177.98345834 193.73699275 -170.35472408 189.66046979 -162.625 185.3125 C-163.95952215 181.30893356 -166.48767605 180.30653845 -169.9375 178.25 C-177.06553308 173.85705654 -183.33387821 168.83163432 -189.625 163.3125 C-185.55827682 159.81082055 -181.28398775 157.29660566 -176.5625 154.8125 C-175.81387695 154.41740234 -175.06525391 154.02230469 -174.29394531 153.61523438 C-157.70598461 145.05508007 -142.31151718 143.11557093 -124.47900391 148.67089844 C-116.58395475 151.40308031 -104.49399978 157.57450044 -100.625 165.3125 C-99.965 165.3125 -99.305 165.3125 -98.625 165.3125 C-98.47804687 164.31283203 -98.47804687 164.31283203 -98.328125 163.29296875 C-95.96224434 148.71016983 -90.96878722 137.00669559 -79.125 127.625 C-63.92765226 116.95818234 -47.48024386 110.1678309 -28.625 111.3125 C-29.55684786 114.64743927 -30.49651645 117.98012799 -31.4375 121.3125 C-31.69853516 122.24707031 -31.95957031 123.18164062 -32.22851562 124.14453125 C-33.78766202 129.64966542 -35.53346052 134.98629736 -37.625 140.3125 C-36.65397339 140.31080811 -36.65397339 140.31080811 -35.66333008 140.30908203 C-8.80463654 140.41802303 15.91627258 146.07182333 36.0625 164.8125 C36.825625 165.6375 37.58875 166.4625 38.375 167.3125 C38.83261719 167.76496094 39.29023438 168.21742188 39.76171875 168.68359375 C49.15040067 178.56511987 52.60944975 191.37686175 55.375 204.3125 C55.70396589 205.6469176 56.03627618 206.98052588 56.375 208.3125 C55.47213257 208.13182983 55.47213257 208.13182983 54.55102539 207.94750977 C46.73850712 206.45029701 38.89031704 205.43905059 30.99536133 204.50756836 C28.81224396 204.24996979 26.62972508 203.98771848 24.44726562 203.72460938 C17.09692633 202.84309438 9.74491768 202.01543217 2.375 201.3125 C2.7464917 201.73732666 3.1179834 202.16215332 3.50073242 202.59985352 C23.37454662 225.52536943 34.0529443 249.76077158 40.375 279.3125 C2.61184787 270.26516221 -32.43455906 259.62488098 -59.625 230.3125 C-59.955 229.6525 -60.285 228.9925 -60.625 228.3125 C-61.285 228.3125 -61.945 228.3125 -62.625 228.3125 C-61.04419947 236.72942199 -59.02485862 245.02178773 -56.97167969 253.33251953 C-54.05940953 265.13174175 -51.20612084 276.93565022 -48.625 288.8125 C-46.4219382 298.90719646 -44.07825478 308.96351104 -41.65014648 319.00610352 C-41.26688362 320.59185958 -40.88498262 322.1779456 -40.50463867 323.7644043 C-38.34992444 332.73900598 -36.00675821 341.62170522 -33.35838318 350.46379089 C-31.79301164 355.69475907 -30.3941525 360.9406928 -29.125 366.25 C-27.49378077 372.89679458 -25.80704444 379.52365795 -24 386.125 C-23.80599609 386.84743896 -23.61199219 387.56987793 -23.41210938 388.31420898 C-23.22197266 389.00071533 -23.03183594 389.68722168 -22.8359375 390.39453125 C-22.67399902 390.98468018 -22.51206055 391.5748291 -22.34521484 392.18286133 C-21.28809252 395.3087183 -19.94766994 398.28967547 -18.625 401.3125 C-17.55878418 401.32708252 -16.49256836 401.34166504 -15.39404297 401.35668945 C24.61772833 401.94644465 24.61772833 401.94644465 42.375 405.3125 C43.49696777 405.51117676 43.49696777 405.51117676 44.64160156 405.71386719 C82.88494467 412.59600257 118.71368281 431.62433779 148.375 456.3125 C148.88998047 456.73724609 149.40496094 457.16199219 149.93554688 457.59960938 C162.97119701 468.38406206 174.98620677 479.92169121 185.375 493.3125 C186.8366612 495.18162674 188.30030366 497.04918213 189.76489258 498.91601562 C190.73267463 500.15187474 191.69750831 501.39005015 192.65893555 502.63085938 C194.76909695 505.34188161 196.85165167 507.97297175 199.375 510.3125 C205.38200371 504.5312292 210.91050651 498.65999007 216.10546875 492.13671875 C217.61574347 490.25732353 219.1604172 488.40505104 220.73828125 486.58203125 C227.53814994 478.71934417 233.284311 470.36082484 238.89013672 461.61962891 C240.29559383 459.43587854 241.72636616 457.27067005 243.16015625 455.10546875 C281.72202837 395.72474759 292.0930973 317.2955918 278.0546875 248.60546875 C268.87054498 206.7623231 250.56289062 168.11259283 224.375 134.3125 C223.42560547 133.07113281 223.42560547 133.07113281 222.45703125 131.8046875 C209.47073345 115.15009528 194.12398259 99.18508051 177.375 86.3125 C176.39660156 85.52875 175.41820312 84.745 174.41015625 83.9375 C143.25375052 59.13536123 105.98624611 41.69579145 67.375 32.3125 C66.49666504 32.09609863 65.61833008 31.87969727 64.71337891 31.65673828 C61.83435362 30.95805226 58.95016654 30.28701007 56.0625 29.625 C55.21091309 29.42229492 54.35932617 29.21958984 53.48193359 29.01074219 C36.6629101 25.3088884 19.32419305 24.96046549 2.17407227 24.99682617 C-0.92532571 24.99998758 -4.02376548 24.97639317 -7.12304688 24.95117188 C-26.52725588 24.88834037 -45.62404098 26.85191401 -64.5 31.4375 Z " fill="#A9C400" transform="translate(307.625,-0.3125)"/>
<path d="M0 0 C1.05704132 0.00182281 2.11408264 0.00364563 3.20315552 0.00552368 C18.80019511 0.05078206 33.99317377 0.5219917 49.375 3.3125 C50.37821289 3.48410645 51.38142578 3.65571289 52.41503906 3.83251953 C111.41660877 14.04959729 166.28249756 40.71318179 209.83447266 81.87353516 C211.33406969 83.2742681 212.85384778 84.64754894 214.38671875 86.01171875 C219.11385218 90.22293038 223.58383576 94.43475721 227.65625 99.28515625 C229.53898583 101.50592874 231.5163438 103.61900701 233.5 105.75 C261.33143772 136.66328346 281.65537588 174.9194857 294.375 214.3125 C294.66455566 215.20598145 294.95411133 216.09946289 295.25244141 217.02001953 C320.10407073 295.1732011 310.02950393 380.96559747 272.90820312 453.43457031 C265.25576158 467.79873925 256.4377214 481.52236975 246.375 494.3125 C245.8608252 494.96798828 245.34665039 495.62347656 244.81689453 496.29882812 C230.18496246 514.8469667 214.10951712 532.82376579 195.375 547.3125 C194.28741892 548.18806651 193.20157257 549.06579085 192.1171875 549.9453125 C183.86762544 556.598411 175.32476542 562.63892522 166.375 568.3125 C165.7867041 568.68584473 165.1984082 569.05918945 164.59228516 569.44384766 C115.6193161 600.24044151 59.19877278 616.51708342 1.375 616.5625 C0.59320374 616.56317474 -0.18859253 616.56384949 -0.99407959 616.56454468 C-33.69078245 616.52020202 -65.51858234 611.39185301 -96.625 601.3125 C-97.5207373 601.02568359 -98.41647461 600.73886719 -99.33935547 600.44335938 C-122.14616044 593.01574342 -144.41028041 582.20829523 -164.625 569.3125 C-165.70265625 568.62800781 -166.7803125 567.94351563 -167.890625 567.23828125 C-182.46108042 557.73012509 -195.9728716 546.84643894 -208.703125 535.01171875 C-211.41378029 532.50762409 -214.1677361 530.06323155 -216.9375 527.625 C-220.50307638 524.42221676 -223.71755182 521.11069015 -226.80078125 517.4453125 C-228.89750393 514.99389797 -231.10465762 512.6642558 -233.3125 510.3125 C-271.67231775 468.12250378 -295.09348347 413.0338351 -304.625 357.3125 C-304.79016113 356.40209961 -304.95532227 355.49169922 -305.12548828 354.55371094 C-310.52202376 323.84870763 -310.14206539 288.96611533 -304.625 258.3125 C-304.31103271 256.5500293 -304.31103271 256.5500293 -303.99072266 254.75195312 C-301.36969714 240.43926178 -298.27633469 226.35876444 -293.43457031 212.62451172 C-292.58107564 210.18705861 -291.77101734 207.73735294 -290.9609375 205.28515625 C-276.53368259 162.66132478 -251.73034989 124.61728498 -220.625 92.3125 C-220.09519531 91.76078125 -219.56539063 91.2090625 -219.01953125 90.640625 C-211.94295727 83.31191656 -204.63912177 76.62080469 -196.625 70.3125 C-195.49413721 69.38258257 -194.36533909 68.45015038 -193.23828125 67.515625 C-150.57564834 32.35322813 -97.35595303 9.60633787 -42.625 2.3125 C-41.65859589 2.18329666 -41.65859589 2.18329666 -40.67266846 2.05148315 C-27.10990857 0.29287287 -13.66454706 -0.04900863 0 0 Z M-64.5 31.4375 C-65.74974609 31.7368042 -66.99949219 32.0361084 -68.28710938 32.34448242 C-139.14920337 49.89423091 -201.59759482 95.63012973 -240.5 157.3125 C-259.34359422 188.66763047 -273.23493817 222.16406881 -279.625 258.3125 C-279.74810547 259.00746582 -279.87121094 259.70243164 -279.99804688 260.41845703 C-282.55522227 275.364315 -282.81156092 290.37772787 -282.81030273 305.49609375 C-282.81248066 308.41160893 -282.83068109 311.32673923 -282.84960938 314.2421875 C-282.89789875 330.11664985 -282.15910422 346.00792148 -278.75 361.5625 C-278.57637939 362.38564697 -278.40275879 363.20879395 -278.22387695 364.05688477 C-277.70564728 366.47895864 -277.16886328 368.89606888 -276.625 371.3125 C-276.39707764 372.34769775 -276.39707764 372.34769775 -276.16455078 373.40380859 C-266.97646331 414.63344753 -247.27136315 453.65058269 -220.625 486.3125 C-220.20138184 486.83763184 -219.77776367 487.36276367 -219.34130859 487.90380859 C-207.34805048 502.68947421 -193.80876838 516.79377916 -178.625 528.3125 C-177.37767912 529.29792789 -176.13169309 530.28504668 -174.88671875 531.2734375 C-167.19530508 537.32867108 -159.3130706 543.00853042 -151.125 548.375 C-150.31297119 548.91092773 -149.50094238 549.44685547 -148.66430664 549.99902344 C-140.23496788 555.8001586 -140.23496788 555.8001586 -130.625 558.3125 C-130.625 558.9725 -130.625 559.6325 -130.625 560.3125 C-125.62445191 562.90537679 -120.62502731 565.16091644 -115.3737793 567.19433594 C-112.76058572 568.25734567 -110.24467399 569.43746112 -107.703125 570.66015625 C-101.05152421 573.69749579 -94.19766107 575.76949272 -87.1875 577.8125 C-86.5266037 578.00637299 -85.8657074 578.20024597 -85.18478394 578.3999939 C-81.86071222 579.37467959 -78.53402651 580.33943855 -75.203125 581.29052734 C-73.06328366 581.90170201 -70.92476413 582.51757941 -68.7890625 583.14306641 C-32.56984449 593.6760606 8.29837092 594.65285083 45.375 588.3125 C46.43879883 588.13509277 47.50259766 587.95768555 48.59863281 587.77490234 C100.61330819 578.74319361 149.10504402 555.61147042 188.375 520.3125 C188.90851074 519.83538574 189.44202148 519.35827148 189.99169922 518.86669922 C199.32442075 510.49776012 208.23471283 501.98670919 216.0703125 492.171875 C217.59484903 490.28041612 219.15211945 488.41483727 220.7421875 486.578125 C227.53995917 478.71616543 233.28532327 470.35924641 238.89013672 461.61962891 C240.29559383 459.43587854 241.72636616 457.27067005 243.16015625 455.10546875 C281.72202837 395.72474759 292.0930973 317.2955918 278.0546875 248.60546875 C268.87054498 206.7623231 250.56289062 168.11259283 224.375 134.3125 C223.42560547 133.07113281 223.42560547 133.07113281 222.45703125 131.8046875 C209.47073345 115.15009528 194.12398259 99.18508051 177.375 86.3125 C176.39660156 85.52875 175.41820312 84.745 174.41015625 83.9375 C143.25375052 59.13536123 105.98624611 41.69579145 67.375 32.3125 C66.49666504 32.09609863 65.61833008 31.87969727 64.71337891 31.65673828 C61.83435362 30.95805226 58.95016654 30.28701007 56.0625 29.625 C55.21091309 29.42229492 54.35932617 29.21958984 53.48193359 29.01074219 C36.6629101 25.3088884 19.32419305 24.96046549 2.17407227 24.99682617 C-0.92532571 24.99998758 -4.02376548 24.97639317 -7.12304688 24.95117188 C-26.52725588 24.88834037 -45.62404098 26.85191401 -64.5 31.4375 Z " fill="#000100" transform="translate(307.625,-0.3125)"/>
<path d="M0 0 C-0.74167892 2.96063635 -1.49310707 5.91824868 -2.25 8.875 C-2.55744141 10.10863281 -2.55744141 10.10863281 -2.87109375 11.3671875 C-4.44303908 17.46442999 -6.5382113 23.20692006 -9 29 C-8.38294189 28.99887207 -7.76588379 28.99774414 -7.13012695 28.99658203 C17.85421443 29.1027903 41.65641073 34.24885053 61 51 C62.21623047 51.91845703 62.21623047 51.91845703 63.45703125 52.85546875 C75.84766613 63.30471384 80.93513314 78.64142137 84 94 C84 95.32 84 96.64 84 98 C69.9081889 96.49258659 55.83450769 94.93890394 41.80615234 92.91479492 C40.96391113 92.79467041 40.12166992 92.6745459 39.25390625 92.55078125 C38.52502197 92.44419189 37.7961377 92.33760254 37.04516602 92.2277832 C34.68039878 91.92620536 34.68039878 91.92620536 31 92 C31.65464233 92.61983765 31.65464233 92.61983765 32.32250977 93.25219727 C36.71125389 97.50807496 40.43874377 101.93017547 43.9375 106.9375 C44.45328613 107.67476318 44.96907227 108.41202637 45.50048828 109.17163086 C56.76940622 125.64631803 68 148.62651265 68 169 C25.61887762 164.83894435 -12.8011445 144.20617618 -40 112 C-40.93362093 110.92857524 -41.86865109 109.85837766 -42.8046875 108.7890625 C-43.84914116 107.58870072 -44.89341053 106.38817857 -45.9375 105.1875 C-46.41582275 104.64295166 -46.89414551 104.09840332 -47.38696289 103.53735352 C-51.93289301 98.27489131 -55.96261684 92.65746733 -60 87 C-60.0093457 88.09127197 -60.01869141 89.18254395 -60.02832031 90.30688477 C-60.49533923 136.89782764 -70.14517305 171.64717757 -94 212 C-94.82395264 213.39484619 -94.82395264 213.39484619 -95.66455078 214.81787109 C-98.64108538 219.84093821 -101.63202422 224.85514859 -104.6796875 229.83544922 C-105.591618 231.33048912 -106.49196999 232.83263141 -107.3828125 234.34033203 C-107.82367188 235.07493652 -108.26453125 235.80954102 -108.71875 236.56640625 C-109.10998047 237.22713135 -109.50121094 237.88785645 -109.90429688 238.56860352 C-110.26587891 239.04096436 -110.62746094 239.5133252 -111 240 C-111.66 240 -112.32 240 -113 240 C-121.87824855 213.86554577 -128.78591854 189.70741923 -129.5625 161.9375 C-129.60578755 160.4850161 -129.64940474 159.03254199 -129.69335938 157.58007812 C-129.79937254 154.05349009 -129.90092748 150.52679065 -130 147 C-133.00831496 149.98330019 -136.01310394 152.97009741 -139.01489258 155.95996094 C-140.03317292 156.97326152 -141.05235474 157.98565712 -142.07250977 158.99707031 C-147.39268416 164.27284463 -152.62403958 169.5696161 -157.49975586 175.26611328 C-163.28229405 181.94920298 -169.55582184 188.20264074 -177 193 C-182.71047775 175.86856674 -180.33013547 150.51191927 -177 133 C-176.82259277 131.99187256 -176.82259277 131.99187256 -176.64160156 130.96337891 C-174.0846583 116.76356038 -168.76540825 102.88485749 -159 92 C-158.36835938 91.27683594 -157.73671875 90.55367188 -157.0859375 89.80859375 C-151.21491562 83.49991388 -144.6012302 79.00236942 -137 75 C-136.34 75 -135.68 75 -135 75 C-137.48438027 72.26551434 -140.26145061 70.4699669 -143.375 68.5 C-150.4107162 63.88979965 -156.68538224 58.54056784 -163 53 C-159.37377626 48.74312865 -154.88531919 46.52947156 -150 44 C-149.1529248 43.55793213 -148.30584961 43.11586426 -147.43310547 42.66040039 C-130.57844823 34.03742304 -115.08075925 31.68018135 -96.84960938 37.36279297 C-87.79198768 40.48322494 -79.84123804 46.38371563 -73 53 C-73 53.66 -73 54.32 -73 55 C-72.34 55 -71.68 55 -71 55 C-71.103125 53.96875 -71.20625 52.9375 -71.3125 51.875 C-71.22927274 40.098343 -64.80893603 29.36841773 -57 21 C-41.39593786 6.68871626 -21.10037618 -1.17043689 0 0 Z " fill="#42A011" transform="translate(280,110)"/>
<path d="M0 0 C1.12529114 0.00157104 1.12529114 0.00157104 2.27331543 0.00317383 C41.40730824 0.11867012 81.2614699 7.38434255 115.5 27.25 C112.35682192 29.90279503 109.16581157 32.10718212 105.59130859 34.14013672 C95.89150559 39.65752665 87.19723223 46.28701149 78.5 53.25 C77.93603516 53.69537109 77.37207031 54.14074219 76.79101562 54.59960938 C62.33104226 66.07154396 48.58221144 79.47371808 37.5 94.25 C36.43499565 95.65632559 35.3698823 97.06256865 34.3046875 98.46875 C31.3506014 102.38174963 28.42032929 106.31175559 25.5 110.25 C16.16398137 102.35194667 8.03457617 93.8976384 0.5 84.25 C0.04753906 83.6739502 -0.40492187 83.09790039 -0.87109375 82.50439453 C-16.94171078 61.94249733 -29.96309148 39.52170676 -40.3125 15.5625 C-40.65635742 14.77875 -41.00021484 13.995 -41.35449219 13.1875 C-42.92373216 9.41596488 -43.77448061 7.15218673 -42.5 3.25 C-28.29664499 0.85302447 -14.37465147 -0.0434076 0 0 Z " fill="#00A6B6" transform="translate(85.5,400.75)"/>
<path d="M0 0 C-1.89688039 6.91760252 -4.3017537 13.36931934 -7.3125 19.875 C-7.7156543 20.75357666 -8.11880859 21.63215332 -8.53417969 22.53735352 C-9.33160726 24.26740104 -10.13272645 25.99575302 -10.93798828 27.72216797 C-11.7906045 29.55088276 -12.62990956 31.38580103 -13.46484375 33.22265625 C-20.48021124 48.04235353 -29.77878104 62.20382011 -40 75 C-40.94359375 76.21236328 -40.94359375 76.21236328 -41.90625 77.44921875 C-49.72122196 87.39409086 -57.84277297 97.25901056 -67 106 C-70.21544144 102.94533063 -72.84507557 99.67374899 -75.5 96.125 C-88.21008281 79.41706587 -102.33105454 63.84579283 -119 51 C-120.27535615 49.98514935 -121.55004693 48.9694622 -122.82421875 47.953125 C-131.6036388 41.0224907 -140.63475597 34.92124386 -150.26953125 29.2421875 C-152.98037858 27.64192815 -155.540442 25.97539304 -158 24 C-137.38317352 12.87297748 -115.88200332 5.82283791 -93 1 C-92.14446533 0.814375 -91.28893066 0.62875 -90.4074707 0.4375 C-61.06790899 -5.73864787 -29.50296135 -4.1562808 0 0 Z " fill="#00A7B6" transform="translate(574,404)"/>
<path d="M0 0 C14.83829197 8.18506707 28.81481407 17.34304147 42 28 C42.52851563 28.42410156 43.05703125 28.84820312 43.6015625 29.28515625 C58.7290455 41.52599394 73.26215619 55.45271399 85 71 C85.79019531 71.99644531 86.58039063 72.99289063 87.39453125 74.01953125 C124 120.28595608 124 120.28595608 124 137 C109.72289519 141.75903494 87.95100827 138.69148951 74 134 C72.8965625 133.649375 71.793125 133.29875 70.65625 132.9375 C57.52840896 128.34912837 45.44214381 121.13687584 35 112 C34.2678125 111.41089844 33.535625 110.82179688 32.78125 110.21484375 C13.35140849 94.10312658 0.10495391 68.23544469 -2.80810547 43.3449707 C-3.20570975 38.48620586 -3.18456851 33.62214085 -3.1875 28.75 C-3.19974609 27.69425781 -3.21199219 26.63851562 -3.22460938 25.55078125 C-3.24063926 16.81983654 -2.21246426 8.45188708 0 0 Z " fill="#FEB300" transform="translate(444,59)"/>
<path d="M0 0 C5.33940884 5.25095646 5.33940884 5.25095646 7.5078125 8.12890625 C8.14420654 8.96023071 8.14420654 8.96023071 8.79345703 9.80834961 C9.23286621 10.38721924 9.67227539 10.96608887 10.125 11.5625 C14.68034804 17.51120234 19.57543521 22.89876906 24.8828125 28.18359375 C27.47340128 31.62974599 27.59684997 33.73186818 28 38 C28.78460065 41.50158833 29.72043469 44.96516447 30.625 48.4375 C32.99974242 57.73155354 35.12636488 67.05595489 37.125 76.4375 C40.20594564 90.83217128 43.6323376 105.13769544 47.125 119.4375 C47.37880432 120.48235565 47.63260864 121.5272113 47.894104 122.60372925 C50.65659622 133.96028183 53.56429767 145.23160325 56.93701172 156.42260742 C58.26664389 160.89736631 59.41601828 165.39820315 60.5 169.9375 C62.29571932 177.31411833 64.23932673 184.63184359 66.38867188 191.91381836 C67.73903363 196.60743232 68.49867454 201.13932267 69 206 C68.02804687 206.08636719 67.05609375 206.17273438 66.0546875 206.26171875 C57.55640802 207.0965676 49.2688329 208.43125488 40.9375 210.3125 C40.08978027 210.50094482 39.24206055 210.68938965 38.36865234 210.88354492 C30.11115855 212.81060467 22.06871054 215.41201847 14 218 C14.00666183 217.23025345 14.01332367 216.4605069 14.02018738 215.66743469 C14.78208682 164.23593551 14.78208682 164.23593551 11 113 C10.85014648 111.79472656 10.70029297 110.58945312 10.54589844 109.34765625 C8.62205036 94.43068557 5.95177435 79.62795805 3.24609375 64.8359375 C3.05039795 63.73789795 2.85470215 62.6398584 2.65307617 61.50854492 C2.19469277 59.04595507 1.69650177 56.59060168 1.16918945 54.1418457 C-1.26601248 42.47424151 -1.16678756 31.30642189 -0.6875 19.4375 C-0.62403121 17.53976702 -0.56217348 15.64197946 -0.50195312 13.74414062 C-0.35312619 9.16192111 -0.18277848 4.58098562 0 0 Z " fill="#8A4901" transform="translate(219,196)"/>
<path d="M0 0 C1.12529114 0.00157104 1.12529114 0.00157104 2.27331543 0.00317383 C41.40730824 0.11867012 81.2614699 7.38434255 115.5 27.25 C111.52552277 30.61065836 107.3479304 33.25414234 102.875 35.875 C97.62937761 38.96834924 97.62937761 38.96834924 92.5 42.25 C88.55526343 41.93499381 84.98096816 40.35047797 81.32299805 38.92675781 C63.45893215 31.98662946 45.50918436 28.36169303 26.5 26.25 C25.3553125 26.11722656 24.210625 25.98445313 23.03125 25.84765625 C3.87355942 24.00750965 -15.4044599 25.43344767 -34.5 27.25 C-35.62672175 24.85496313 -36.75142558 22.4590129 -37.875 20.0625 C-38.19210938 19.38896484 -38.50921875 18.71542969 -38.8359375 18.02148438 C-39.73463436 16.10239212 -40.61820629 14.17690188 -41.5 12.25 C-41.92539062 11.34636719 -42.35078125 10.44273437 -42.7890625 9.51171875 C-43.6026875 6.92331833 -43.24584742 5.79624952 -42.5 3.25 C-28.29664499 0.85302447 -14.37465147 -0.0434076 0 0 Z " fill="#00CDE0" transform="translate(85.5,400.75)"/>
<path d="M0 0 C-1.67188873 5.9509938 -3.51753815 11.54774636 -6.1875 17.125 C-6.71730469 18.24132812 -7.24710938 19.35765625 -7.79296875 20.5078125 C-8.39044922 21.74144531 -8.39044922 21.74144531 -9 23 C-9.54487061 22.96970703 -10.08974121 22.93941406 -10.65112305 22.90820312 C-50.30921951 20.77538586 -87.69924838 21.72755432 -125.04760742 36.54760742 C-125.90330322 36.88123291 -126.75899902 37.2148584 -127.640625 37.55859375 C-128.38860352 37.86079834 -129.13658203 38.16300293 -129.90722656 38.47436523 C-133.16758214 39.29325762 -135.12917076 38.45851741 -138.04296875 36.92431641 C-138.75066406 36.48780762 -139.45835937 36.05129883 -140.1875 35.6015625 C-140.96867187 35.12203125 -141.74984375 34.6425 -142.5546875 34.1484375 C-143.36164063 33.64570313 -144.16859375 33.14296875 -145 32.625 C-145.80695313 32.13 -146.61390625 31.635 -147.4453125 31.125 C-151.08457866 28.87898425 -154.60430736 26.6049541 -158 24 C-137.38317352 12.87297748 -115.88200332 5.82283791 -93 1 C-92.14446533 0.814375 -91.28893066 0.62875 -90.4074707 0.4375 C-61.06790899 -5.73864787 -29.50296135 -4.1562808 0 0 Z " fill="#01CEE0" transform="translate(574,404)"/>
<path d="M0 0 C4.5036667 2.14709691 7.74314221 6.28774253 11.015625 9.9609375 C10.025625 11.9409375 9.035625 13.9209375 8.015625 15.9609375 C8.758125 15.6103125 9.500625 15.2596875 10.265625 14.8984375 C13.29566703 13.86546862 14.0999685 13.85652216 17.015625 14.9609375 C18.9375 16.58984375 18.9375 16.58984375 20.765625 18.5234375 C21.68601562 19.48443359 21.68601562 19.48443359 22.625 20.46484375 C23.08390625 20.95855469 23.5428125 21.45226562 24.015625 21.9609375 C23.025625 23.9409375 22.035625 25.9209375 21.015625 27.9609375 C22.02625 27.5071875 23.036875 27.0534375 24.078125 26.5859375 C28.015625 25.9609375 28.015625 25.9609375 29.6875 27.09375 C30.80876835 28.19900023 31.9257744 29.3085869 33.0390625 30.421875 C36.53591817 33.14472309 40.70886089 33.45833726 45.015625 33.9609375 C45.015625 36.2709375 45.015625 38.5809375 45.015625 40.9609375 C46.005625 41.2909375 46.995625 41.6209375 48.015625 41.9609375 C48.345625 39.6509375 48.675625 37.3409375 49.015625 34.9609375 C53.965625 35.6209375 58.915625 36.2809375 64.015625 36.9609375 C64.510625 40.4259375 64.510625 40.4259375 65.015625 43.9609375 C66.005625 43.9609375 66.995625 43.9609375 68.015625 43.9609375 C68.345625 42.3109375 68.675625 40.6609375 69.015625 38.9609375 C74.54240233 38.76701549 78.77177411 39.2129872 84.015625 40.9609375 C84.510625 43.9309375 84.510625 43.9309375 85.015625 46.9609375 C86.005625 46.9609375 86.995625 46.9609375 88.015625 46.9609375 C88.345625 45.3109375 88.675625 43.6609375 89.015625 41.9609375 C92.16273679 41.7463617 94.46180164 41.72774872 97.390625 42.9609375 C99.5956619 45.67482907 99.52587387 47.67727197 99.33203125 51.09765625 C99.015625 52.9609375 99.015625 52.9609375 97.890625 54.7734375 C96.015625 55.9609375 96.015625 55.9609375 93.37890625 57.10546875 C89.84269672 59.05633928 87.31124628 61.28892421 84.35864258 64.00219727 C75.75143931 71.77527695 75.75143931 71.77527695 70.984375 72.28515625 C68.11278253 71.46168488 65.67364395 70.32076459 63.015625 68.9609375 C60.92404906 68.25576241 58.81868695 67.59050834 56.703125 66.9609375 C55.05183594 66.45240234 55.05183594 66.45240234 53.3671875 65.93359375 C32.42634399 59.85635595 10.70157655 58.453429 -10.984375 57.9609375 C-10.10590371 53.56679917 -7.69743185 50.74156837 -4.921875 47.3359375 C-4.43033936 46.72218262 -3.93880371 46.10842773 -3.43237305 45.47607422 C-2.43332835 44.2298248 -1.43146697 42.98582796 -0.42675781 41.74414062 C0.89663223 40.10804705 2.21212381 38.46609081 3.5234375 36.8203125 C5.3492604 34.52985366 7.18004555 32.24357785 9.015625 29.9609375 C7.63927394 26.82936425 6.08373001 24.84499094 3.57421875 22.53515625 C2.90841797 21.90287109 2.24261719 21.27058594 1.55664062 20.61914062 C0.1580395 19.30884487 -1.24821832 18.00667274 -2.66210938 16.71289062 C-6.00181514 13.51571352 -7.7845212 11.68291856 -9.04296875 7.13671875 C-8.984375 3.9609375 -8.984375 3.9609375 -7.484375 1.4609375 C-4.80272281 -0.14805381 -3.09888292 -0.60630318 0 0 Z " fill="#F61949" transform="translate(313.984375,343.0390625)"/>
<path d="M0 0 C11.70466686 9.13877893 19.38989324 18.61222299 23.0625 33.125 C12.13170614 32.55118523 1.25872859 31.70476309 -9.61083984 30.40771484 C-11.24724832 30.2190113 -12.88540204 30.04488005 -14.52490234 29.88525391 C-25.35682064 28.8233856 -33.04779888 26.78211265 -41.90380859 20.31176758 C-56.37720546 9.87894802 -73.67803829 7.5234212 -90.9375 6.125 C-90.9375 5.795 -90.9375 5.465 -90.9375 5.125 C-64.26882332 -0.33217136 -37.8649855 -0.63080757 -13.94140625 13.453125 C-11.48846468 14.81835126 -9.67082861 15.66832593 -6.9375 16.125 C-6.97012554 13.75223993 -6.97012554 13.75223993 -7.9375 11.125 C-16.62659123 4.22599223 -27.35049936 0.86320854 -37.9375 -1.875 C-38.86949219 -2.12121094 -39.80148437 -2.36742187 -40.76171875 -2.62109375 C-53.16305579 -5.37483628 -66.36602258 -4.28236276 -78.80078125 -2.3125 C-81.57012055 -1.92624097 -84.14815251 -1.79126724 -86.9375 -1.875 C-65.51123106 -25.12373319 -22.67937337 -15.87872445 0 0 Z " fill="#5DC229" transform="translate(329.9375,163.875)"/>
<path d="M0 0 C26.00295845 -0.45176202 50.63104124 0.68979182 76 7 C72.85718713 10.73204959 69.72902881 14.38593342 66.1875 17.75 C56.67694517 27.170663 48.95321734 38.27459523 41 49 C28.95064098 38.80652417 19.18899361 27.29081373 9.6875 14.75 C9.18371826 14.08863037 8.67993652 13.42726074 8.16088867 12.74584961 C5.08835352 8.64896501 2.45226027 4.49678131 0 0 Z " fill="#007680" transform="translate(70,462)"/>
<path d="M0 0 C-1.55876807 4.11171444 -3.44132247 7.18562811 -6.125 10.6875 C-6.52678467 11.2129541 -6.92856934 11.7384082 -7.3425293 12.27978516 C-8.55453233 13.85870736 -9.77715292 15.42946134 -11 17 C-11.64324219 17.82886719 -12.28648437 18.65773438 -12.94921875 19.51171875 C-20.76643192 29.42663273 -28.85845586 39.2739806 -38 48 C-41.21544144 44.94533063 -43.84507557 41.67374899 -46.5 38.125 C-54.61432103 27.43239669 -63.28219992 17.2760819 -73 8 C-64.12006896 3.16482016 -53.39597096 2.30638283 -43.5 1.3125 C-42.26419189 1.18512451 -41.02838379 1.05774902 -39.75512695 0.92651367 C-26.49618842 -0.32366513 -13.30733982 -0.30023502 0 0 Z " fill="#007680" transform="translate(545,462)"/>
<path d="M0 0 C-1.98 4.62 -3.96 9.24 -6 14 C-6.495 13.01 -6.495 13.01 -7 12 C-41.08065581 11.30961489 -41.08065581 11.30961489 -75 14 C-76.0511499 14.14477783 -76.0511499 14.14477783 -77.12353516 14.29248047 C-86.60836879 15.66679969 -95.69830304 18.20826363 -104.82080078 21.10644531 C-109.54823673 22.55341732 -113.12394711 23.56415552 -118 22 C-120.30330627 20.55450944 -121.99079836 18.86568724 -124 17 C-121.54155866 14.10498406 -119.17554058 13.12670111 -115.609375 11.9140625 C-113.97355469 11.35730835 -113.97355469 11.35730835 -112.3046875 10.78930664 C-111.13164062 10.40508545 -109.95859375 10.02086426 -108.75 9.625 C-107.54085938 9.22724365 -106.33171875 8.8294873 -105.0859375 8.41967773 C-70.43714915 -2.70997434 -36.05030498 -3.93148409 0 0 Z " fill="#015366" transform="translate(565,427)"/>
<path d="M0 0 C-5.87070472 6.20617356 -5.87070472 6.20617356 -10 8 C-12.60300102 7.48246215 -14.67938396 6.87318753 -17.125 5.9375 C-26.28501036 2.77199404 -35.48380592 0.77419998 -45 -1 C-45.7576918 -1.14159042 -46.51538361 -1.28318085 -47.29603577 -1.42906189 C-63.1428916 -4.28119194 -78.75246909 -4.35464963 -94.8125 -4.1875 C-97.36652846 -4.17240853 -99.92056567 -4.15872811 -102.47460938 -4.14648438 C-108.64996086 -4.11387281 -114.82488005 -4.06234266 -121 -4 C-122.65 -7.63 -124.3 -11.26 -126 -15 C-83.3311042 -22.71124623 -39.72951027 -16.83276619 0 0 Z " fill="#015265" transform="translate(177,443)"/>
<path d="M0 0 C4.0352823 3.01327453 7.90589207 6.16679276 11.625 9.5625 C11.625 9.8925 11.625 10.2225 11.625 10.5625 C11.02776123 10.60213867 10.43052246 10.64177734 9.81518555 10.68261719 C-1.68177932 11.4784679 -12.88890018 12.47228788 -24.08129883 15.32910156 C-30.91408605 16.99048526 -36.27447906 16.94502893 -42.515625 13.453125 C-43.89487651 12.58781512 -45.26469585 11.70730083 -46.625 10.8125 C-47.31851563 10.38195312 -48.01203125 9.95140625 -48.7265625 9.5078125 C-52.70686092 6.96103152 -55.630594 4.49520551 -58.375 0.5625 C-56.0457957 -0.57177397 -53.71219515 -1.69490384 -51.375 -2.8125 C-50.72660156 -3.12960938 -50.07820312 -3.44671875 -49.41015625 -3.7734375 C-32.79668545 -11.66894838 -15.2835184 -10.3422305 0 0 Z " fill="#5BBF27" transform="translate(191.375,162.4375)"/>
<path d="M0 0 C-0.79956293 8.38993427 -4.08549124 16.13656504 -9 23 C-12.1117847 25.54693929 -15.23699233 26.68072068 -19 28 C-29.94902108 33.5209047 -39.54583431 40.22350463 -49 48 C-51.1344525 41.7880072 -48.36661441 34.83895543 -45.63671875 29.16796875 C-42.93042334 24.50363014 -40.1119074 20.53815288 -36 17 C-35.4225 16.48179687 -34.845 15.96359375 -34.25 15.4296875 C-25.72353032 8.2274044 -11.52715884 -0.67806817 0 0 Z " fill="#56BA23" transform="translate(267,120)"/>
<path d="M0 0 C26.00295845 -0.45176202 50.63104124 0.68979182 76 7 C75.02133662 8.14626322 74.04205413 9.29199788 73.0625 10.4375 C72.24458984 11.39462891 72.24458984 11.39462891 71.41015625 12.37109375 C70.63204305 13.26991149 69.84063472 14.15936528 69 15 C67.18494823 14.960075 65.37167287 14.83882907 63.5625 14.6875 C62.36496094 14.58824219 61.16742188 14.48898437 59.93359375 14.38671875 C57.35948778 14.13365371 54.78849859 13.84590003 52.22265625 13.51953125 C50.85683018 13.3458867 49.49094191 13.17273089 48.125 13 C47.40602539 12.90477051 46.68705078 12.80954102 45.94628906 12.71142578 C40.68017915 12.09258717 35.49655031 11.9729608 30.19921875 12.03515625 C28.10243454 12.039672 26.00566294 12.04102224 23.90887451 12.04223633 C22.52201866 12.05564175 21.13519939 12.0888683 19.74932861 12.14282227 C15.29876763 12.31405446 11.27774185 12.2981681 7 11 C3.75932681 7.70570922 1.8051592 4.23180955 0 0 Z " fill="#015265" transform="translate(70,462)"/>
<path d="M0 0 C-3.74791049 9.5532548 -3.74791049 9.5532548 -7 12 C-11.43398388 12.83077516 -15.76366772 12.50363601 -20.25 12.25 C-33.30352544 11.84865673 -45.69768568 12.78663229 -58.59765625 14.72460938 C-65.34333771 15.49789481 -65.34333771 15.49789481 -68.01953125 13.46875 C-68.90705078 12.49421875 -68.90705078 12.49421875 -69.8125 11.5 C-70.41707031 10.8503125 -71.02164062 10.200625 -71.64453125 9.53125 C-72.31548828 8.77328125 -72.31548828 8.77328125 -73 8 C-64.12006896 3.16482016 -53.39597096 2.30638283 -43.5 1.3125 C-42.26419189 1.18512451 -41.02838379 1.05774902 -39.75512695 0.92651367 C-26.49618842 -0.32366513 -13.30733982 -0.30023502 0 0 Z " fill="#015165" transform="translate(545,462)"/>
<path d="M0 0 C1.5078125 1.43359375 1.5078125 1.43359375 3.125 3.4375 C5.78633056 6.62099036 8.53789925 9.59350183 11.5 12.5 C22.44378194 23.33134583 22.44378194 23.33134583 24 28 C17.58639807 27.54615107 11.23953386 26.92000813 4.875 26 C-3.72429843 24.80342057 -12.33131468 24.37733109 -21 24 C-20.63865967 23.52111328 -20.27731934 23.04222656 -19.9050293 22.54882812 C-17.20437977 18.9601213 -14.52623091 15.35838812 -11.89453125 11.71875 C-10.8671875 10.3125 -9.83984375 8.90625 -8.8125 7.5 C-8.29236328 6.77296875 -7.77222656 6.0459375 -7.23632812 5.296875 C-6.73166016 4.61109375 -6.22699219 3.9253125 -5.70703125 3.21875 C-5.2581958 2.59935547 -4.80936035 1.97996094 -4.34692383 1.34179688 C-3 0 -3 0 0 0 Z " fill="#FC846F" transform="translate(331,377)"/>
<path d="M0 0 C6.19356504 -0.25806521 11.92283996 0.74012977 18 1.875 C26.97977526 3.49948196 35.93939118 4.91215439 45 6 C41.61013888 9.48865489 38.10340442 12.64132987 34.3125 15.6875 C30.53910677 18.71370384 30.53910677 18.71370384 27 22 C15.79756529 19.8747154 9.62563396 13.80399975 3 5 C1.96135759 3.35713673 0.94338076 1.69935591 0 0 Z " fill="#FD7E70" transform="translate(353,391)"/>
<path d="M0 0 C2 3 2 3 1.9375 5.5 C0.67563171 8.86498212 -0.8476736 9.35911944 -4 11 C-8.08043302 12.44966068 -12.26291877 13.54026856 -16.4375 14.6875 C-17.55705078 15.00783203 -18.67660156 15.32816406 -19.83007812 15.65820312 C-20.91611328 15.96048828 -22.00214844 16.26277344 -23.12109375 16.57421875 C-24.1052124 16.84838623 -25.08933105 17.12255371 -26.10327148 17.4050293 C-29.17869493 18.03670287 -31.86931493 18.22122139 -35 18 C-36.9375 16.3125 -36.9375 16.3125 -38 14 C-38 11.4375 -38 11.4375 -37 9 C-31.70662063 5.31326732 -25.7634854 3.96849303 -19.625 2.25 C-17.95824219 1.75693359 -17.95824219 1.75693359 -16.2578125 1.25390625 C-5.59067706 -1.75574982 -5.59067706 -1.75574982 0 0 Z " fill="#FE7B02" transform="translate(424,114)"/>
<path d="M0 0 C0.74330566 -0.0066568 1.48661133 -0.0133136 2.25244141 -0.02017212 C3.82256599 -0.03028826 5.39273348 -0.03498946 6.96289062 -0.03466797 C9.36660279 -0.0390472 11.768487 -0.07539 14.171875 -0.11328125 C15.69791039 -0.11914846 17.22395449 -0.12311849 18.75 -0.125 C19.82822021 -0.14655655 19.82822021 -0.14655655 20.92822266 -0.16854858 C24.20400076 -0.13849963 25.92388822 -0.08714597 28.36328125 2.20068359 C29.69543813 5.01222898 29.36935035 6.42937492 28.375 9.3359375 C25.48190059 12.22903691 22.50594168 11.66030574 18.62890625 11.671875 C17.86198959 11.6785318 17.09507294 11.6851886 16.30491638 11.69204712 C14.68173626 11.70217865 13.05851444 11.70686398 11.43530273 11.70654297 C8.95031162 11.71091496 6.46709835 11.74722226 3.98242188 11.78515625 C2.40625608 11.79102457 0.83008184 11.79499386 -0.74609375 11.796875 C-1.86183022 11.81843155 -1.86183022 11.81843155 -3.00010681 11.84042358 C-6.3265332 11.81093215 -8.13832336 11.7896463 -10.62524414 9.47119141 C-11.625 7.3359375 -11.625 7.3359375 -11.5 4.7109375 C-9.52732633 -0.64346245 -4.85597394 0.01503545 0 0 Z " fill="#FE7A01" transform="translate(392.625,80.6640625)"/>
<path d="M0 0 C1.9375 1.125 1.9375 1.125 3 3 C3.14560796 6.2033751 2.66107973 8.17126892 0.64453125 10.69921875 C-3.04803945 14.459388 -7.07958826 17.87377748 -11.08984375 21.2890625 C-12.9050557 22.91495786 -14.49746638 24.62724068 -16.125 26.4375 C-19 29 -19 29 -22.1875 29.5625 C-25 29 -25 29 -26.875 27.8125 C-28.40756695 25.34336436 -28.31755732 23.87449165 -28 21 C-26.51879883 18.93530273 -26.51879883 18.93530273 -24.45703125 16.93359375 C-23.71259766 16.20076172 -22.96816406 15.46792969 -22.20117188 14.71289062 C-21.41291016 13.96201172 -20.62464844 13.21113281 -19.8125 12.4375 C-19.04357422 11.68275391 -18.27464844 10.92800781 -17.48242188 10.15039062 C-6.1094643 -0.92970109 -6.1094643 -0.92970109 0 0 Z " fill="#FE7E02" transform="translate(455,170)"/>
<path d="M0 0 C2 2 2 2 2.6875 4.75 C1.90234465 8.46164346 1.54243388 8.74725625 -1.4375 10.8125 C-3.27434253 11.90467664 -5.13224388 12.96157458 -7 14 C-7.65403809 14.38188477 -8.30807617 14.76376953 -8.98193359 15.15722656 C-11.18347465 16.44133412 -13.4008432 17.69302271 -15.625 18.9375 C-16.69899048 19.55878784 -16.69899048 19.55878784 -17.79467773 20.19262695 C-22.7155364 22.85627341 -25.5479445 23.3809012 -31 22 C-31.75 18.75 -31.75 18.75 -32 15 C-27.96789502 10.02538676 -22.1333384 7.59537416 -16.5625 4.6875 C-15.52544922 4.12482422 -14.48839844 3.56214844 -13.41992188 2.98242188 C-12.41638672 2.45583984 -11.41285156 1.92925781 -10.37890625 1.38671875 C-9.4669751 0.90420654 -8.55504395 0.42169434 -7.61547852 -0.07543945 C-4.56276977 -1.15455903 -3.04217983 -1.02898691 0 0 Z " fill="#FE7C02" transform="translate(434,144)"/>
<path d="M0 0 C3 0.25 3 0.25 5 2.25 C6.45092093 9.73796954 1.96682415 15.03895925 -1.9375 21.125 C-2.59685547 22.18203125 -3.25621094 23.2390625 -3.93554688 24.328125 C-8.73070407 31.98070407 -8.73070407 31.98070407 -10 33.25 C-13.4375 33.4375 -13.4375 33.4375 -17 33.25 C-19 31.25 -19 31.25 -19.5546875 28.33203125 C-19.38015326 22.42389405 -15.29933597 17.66794391 -12.125 12.9375 C-11.47402344 11.93654297 -10.82304687 10.93558594 -10.15234375 9.90429688 C-3.87700497 0.32308375 -3.87700497 0.32308375 0 0 Z " fill="#FE8003" transform="translate(479,191.75)"/>
<path d="M0 0 C3.0625 0.3125 3.0625 0.3125 5 1.375 C7.32012148 5.60580976 4.77064986 11.57301557 3.5390625 15.95703125 C2.92743542 18.01468183 2.31010952 20.07064585 1.6875 22.125 C1.23117187 23.69797852 1.23117187 23.69797852 0.765625 25.30273438 C0.46398437 26.30240234 0.16234375 27.30207031 -0.1484375 28.33203125 C-0.41962402 29.24057861 -0.69081055 30.14912598 -0.97021484 31.08520508 C-1.9375 33.3125 -1.9375 33.3125 -4.9375 35.3125 C-7.79200343 35.66931293 -9.27717455 35.81669034 -11.59985352 34.04321289 C-12.9375 32.3125 -12.9375 32.3125 -13.13256836 30.43530273 C-12.26867782 24.15894702 -10.56388705 18.35648934 -8.5 12.375 C-8.18740234 11.43076172 -7.87480469 10.48652344 -7.55273438 9.51367188 C-4.49342034 0.47802344 -4.49342034 0.47802344 0 0 Z " fill="#FE8104" transform="translate(510.9375,207.6875)"/>
<path d="M0 0 C0.91120605 0.13760742 1.82241211 0.27521484 2.76123047 0.41699219 C5.65915124 0.87317845 8.54784413 1.36926196 11.4375 1.875 C12.42943359 2.03613281 13.42136719 2.19726562 14.44335938 2.36328125 C15.38888672 2.52957031 16.33441406 2.69585937 17.30859375 2.8671875 C18.16251709 3.01269043 19.01644043 3.15819336 19.89624023 3.30810547 C22 4 22 4 24 7 C23.43396226 13.56603774 23.43396226 13.56603774 22 15 C14.63911526 15.69094782 7.70367852 14.40354303 0.5625 12.75 C-0.41654297 12.54503906 -1.39558594 12.34007812 -2.40429688 12.12890625 C-3.34208984 11.91621094 -4.27988281 11.70351563 -5.24609375 11.484375 C-6.08841553 11.29584961 -6.9307373 11.10732422 -7.79858398 10.91308594 C-10.5402943 9.775901 -11.52879262 8.54989243 -13 6 C-12.875 3.375 -12.875 3.375 -12 1 C-7.86686734 -1.75542177 -4.6682573 -0.72998687 0 0 Z " fill="#FD7A02" transform="translate(401,44)"/>
<path d="M0 0 C1.66259766 1.11523438 1.66259766 1.11523438 3 3 C3.38818359 5.95507812 3.38818359 5.95507812 3.3984375 9.53125 C3.40230469 10.81644531 3.40617188 12.10164062 3.41015625 13.42578125 C3.40387207 14.09432129 3.39758789 14.76286133 3.39111328 15.45166016 C3.37505354 17.4931933 3.39096671 19.53274708 3.41015625 21.57421875 C3.40628906 22.85941406 3.40242187 24.14460938 3.3984375 25.46875 C3.39505371 26.64888672 3.39166992 27.82902344 3.38818359 29.04492188 C3 32 3 32 1.62744141 33.88085938 C-0.75502139 35.51920463 -2.17207554 35.48281637 -5 35 C-7.87222001 32.80557254 -8.89399997 31.62893352 -9.50170898 28.02319336 C-9.49985596 26.89018799 -9.49800293 25.75718262 -9.49609375 24.58984375 C-9.49673828 23.35298828 -9.49738281 22.11613281 -9.49804688 20.84179688 C-9.47806641 19.55337891 -9.45808594 18.26496094 -9.4375 16.9375 C-9.44458984 15.64521484 -9.45167969 14.35292969 -9.45898438 13.02148438 C-9.39475916 3.55073471 -9.39475916 3.55073471 -7.66040039 1.13110352 C-5.06176997 -0.6391442 -3.05185639 -0.38148205 0 0 Z " fill="#FE8305" transform="translate(553,217)"/>
<path d="M0 0 C1.9375 0.8125 1.9375 0.8125 4 2 C4.33 2.99 4.66 3.98 5 5 C3.59653303 7.16127852 2.18512949 9.07650063 0.5625 11.0625 C0.10818604 11.63452148 -0.34612793 12.20654297 -0.81420898 12.79589844 C-2.20065855 14.53786654 -3.60011385 16.26882407 -5 18 C-5.79664063 19.00417969 -6.59328125 20.00835937 -7.4140625 21.04296875 C-12.6875 27.6875 -12.6875 27.6875 -14 29 C-16.33297433 29.04092937 -18.66705225 29.04241723 -21 29 C-20.12295406 24.63422091 -17.75699045 21.82538601 -15 18.4375 C-14.51104248 17.82632324 -14.02208496 17.21514648 -13.51831055 16.58544922 C-12.01991493 14.71725025 -10.51165144 12.8574832 -9 11 C-8.53803223 10.43071777 -8.07606445 9.86143555 -7.60009766 9.27490234 C-5.08003932 6.17222501 -2.54652598 3.08098205 0 0 Z " fill="#890A09" transform="translate(324,372)"/>
<path d="M0 0 C1.794375 0.5878125 1.794375 0.5878125 3.625 1.1875 C0.45644274 5.4725216 -3.08634994 8.7782861 -7.1875 12.125 C-8.07405273 12.90327148 -8.07405273 12.90327148 -8.97851562 13.69726562 C-13.35706409 17.25453782 -13.35706409 17.25453782 -16.38427734 17.05517578 C-18.32421875 16.50390625 -18.32421875 16.50390625 -21.375 15.1875 C-18.75927152 7.92928653 -7.81743168 -0.97250346 0 0 Z " fill="#870709" transform="translate(402.375,397.8125)"/>
<path d="M0 0 C3.65978038 -0.49390841 6.50796976 -0.23647763 10 1 C16.08982618 5.72086739 21.28165554 12.29437542 25 19 C19.80048406 18.78618813 15.54152332 18.27322766 11.44140625 14.88671875 C9.15096627 12.34135628 7.04304743 9.74726418 5 7 C4.44957031 6.26910156 3.89914062 5.53820312 3.33203125 4.78515625 C2.18596708 3.21533726 1.08621832 1.61180783 0 0 Z " fill="#890809" transform="translate(342,389)"/>
<path d="M0 0 C2.91747073 0.1140575 5.83344495 0.24080268 8.75 0.375 C9.9875 0.42140625 9.9875 0.42140625 11.25 0.46875 C12.04921875 0.50742187 12.8484375 0.54609375 13.671875 0.5859375 C14.4050293 0.6173584 15.13818359 0.6487793 15.89355469 0.68115234 C18 1 18 1 22 3 C19.36 6.63 16.72 10.26 14 14 C9.10565787 9.90473413 4.29279666 5.73642915 0 1 C0 0.67 0 0.34 0 0 Z " fill="#025162" transform="translate(97,497)"/>
<path d="M0 0 C-1.47721422 3.45201639 -3.43794001 5.64961936 -6.125 8.25 C-6.84945313 8.95640625 -7.57390625 9.6628125 -8.3203125 10.390625 C-8.87460937 10.92171875 -9.42890625 11.4528125 -10 12 C-13.59977508 8.58172618 -15.66353897 5.33914191 -18 1 C-11.97403427 -0.0712828 -6.11090483 -0.09945415 0 0 Z " fill="#034F60" transform="translate(517,498)"/>
<path d="M0 0 C1.98 0.495 1.98 0.495 4 1 C3.67 3.31 3.34 5.62 3 8 C1.68 7.67 0.36 7.34 -1 7 C-0.67 4.69 -0.34 2.38 0 0 Z " fill="#FDDCE5" transform="translate(359,377)"/>
<path d="M0 0 C1.32 0 2.64 0 4 0 C4 2.31 4 4.62 4 7 C2.68 7.33 1.36 7.66 0 8 C0 5.36 0 2.72 0 0 Z " fill="#FEE5F1" transform="translate(399,383)"/>
<path d="M0 0 C1.32 0.33 2.64 0.66 4 1 C4 2.98 4 4.96 4 7 C2.68 7.33 1.36 7.66 0 8 C0 5.36 0 2.72 0 0 Z " fill="#FEECF3" transform="translate(379,380)"/>
<path d="M0 0 C2.125 0.375 2.125 0.375 4 1 C3.3125 2.9375 3.3125 2.9375 2 5 C-0.625 5.75 -0.625 5.75 -3 6 C-2.42655063 3.13275314 -2.1385485 2.1385485 0 0 Z " fill="#FEF3F1" transform="translate(325,353)"/>
<path d="M0 0 C0.99 0 1.98 0 3 0 C2.67 1.65 2.34 3.3 2 5 C0.35 5.33 -1.3 5.66 -3 6 C-2.42655063 3.13275314 -2.1385485 2.1385485 0 0 Z " fill="#FEF5F5" transform="translate(338,365)"/>
<path d="M0 0 C3.55780196 0.60990891 6.6828589 1.5783681 10 3 C5.99799622 4.60080151 2.95443764 3.29279692 -1 2 C-0.67 1.34 -0.34 0.68 0 0 Z " fill="#99CABB" transform="translate(410,44)"/>
</svg>
